<svg version="1.0"
  xmlns="http://www.w3.org/2000/svg" width="109.000000pt" height="75.000000pt" viewBox="0 0 109.000000 75.000000" preserveAspectRatio="xMidYMid meet">

  <g transform="translate(0.000000,75.000000) scale(0.100000,-0.100000)" fill="#000000" stroke="none">
    <path d="M0 500 l0 -250 545 0 545 1 0 249 0 250 -545 0 -545 0 0 -250z"/>
    <path d="M0 10 c0 -5 5 -10 10 -10 6 0 10 5 10 10 0 6 -4 10 -10 10 -5 0 -10
-4 -10 -10z"/>
    <path d="M1070 10 c0 -5 5 -10 10 -10 6 0 10 5 10 10 0 6 -4 10 -10 10 -5 0
-10 -4 -10 -10z"/>
  </g>
</svg>
